<?xml version="1.0" standalone="no"?>
<!DOCTYPE svg PUBLIC "-//W3C//DTD SVG 20010904//EN"
 "http://www.w3.org/TR/2001/REC-SVG-20010904/DTD/svg10.dtd">
<svg version="1.0" xmlns="http://www.w3.org/2000/svg"
 width="688.000000pt" height="607.000000pt" viewBox="0 0 688.000000 607.000000"
 preserveAspectRatio="xMidYMid meet">

<g transform="translate(0.000000,607.000000) scale(0.100000,-0.100000)"
fill="#000000" stroke="none">
<path d="M3277 6010 c-74 -13 -133 -53 -166 -112 -77 -134 -61 -368 32 -490
109 -142 367 -122 456 34 39 68 53 136 53 257 0 73 -6 110 -22 153 -22 61 -78
120 -134 143 -42 18 -159 26 -219 15z m294 -97 c13 -16 12 -17 -3 -4 -10 7
-18 15 -18 17 0 8 8 3 21 -13z m-139 -122 c30 -27 33 -34 36 -106 7 -131 -28
-195 -107 -195 -75 0 -114 56 -115 165 -1 116 33 164 116 165 28 0 46 -8 70
-29z"/>
<path d="M3850 5973 c0 -10 -10 -65 -65 -372 -25 -140 -45 -262 -45 -272 0
-14 16 -19 85 -30 47 -7 87 -10 89 -8 2 2 13 56 24 119 11 63 22 108 25 100 4
-8 25 -67 48 -130 23 -63 43 -116 44 -118 2 -2 51 -12 109 -22 58 -11 140 -33
182 -50 41 -16 79 -30 84 -30 4 0 25 25 45 55 21 30 41 55 44 55 3 0 42 -14
88 -31 l82 -31 -6 -47 c-14 -95 -16 -91 72 -127 44 -18 85 -33 91 -34 6 0 19
84 33 213 12 116 29 270 36 342 8 71 11 133 6 138 -16 16 -245 97 -252 90 -3
-4 -82 -111 -174 -238 -92 -126 -181 -247 -198 -268 l-30 -38 -67 148 -66 148
57 13 c76 17 122 66 139 146 26 126 -30 205 -165 234 -69 16 -281 52 -300 52
-8 0 -15 -3 -15 -7z m254 -207 c39 -16 51 -42 37 -79 -12 -31 -39 -41 -94 -32
-62 11 -64 13 -54 73 8 51 9 52 43 52 19 0 50 -6 68 -14z m624 -286 c-6 -52
-12 -97 -14 -99 -5 -6 -95 32 -92 38 6 14 112 161 114 158 1 -1 -3 -45 -8 -97z
m-328 -114 c0 -2 -8 -10 -17 -17 -16 -13 -17 -12 -4 4 13 16 21 21 21 13z
m104 -64 c3 -5 -1 -9 -9 -9 -8 0 -12 4 -9 9 3 4 7 8 9 8 2 0 6 -4 9 -8z"/>
<path d="M2615 5903 c-191 -42 -316 -77 -312 -87 3 -6 39 -151 82 -321 42
-171 80 -313 83 -317 9 -10 276 58 321 82 91 46 151 154 151 270 0 63 -29 188
-55 239 -54 107 -159 159 -270 134z m94 -212 c34 -36 51 -91 51 -162 0 -79
-25 -114 -95 -135 -31 -9 -58 -14 -60 -12 -2 2 -20 66 -40 143 -19 77 -38 148
-41 157 -6 21 37 36 109 37 42 1 53 -3 76 -28z"/>
<path d="M2015 5698 c-38 -16 -73 -33 -77 -37 -7 -6 239 -602 255 -617 7 -7
167 57 167 67 0 4 -47 119 -105 256 -58 136 -116 272 -129 302 -12 30 -27 56
-32 57 -5 1 -40 -11 -79 -28z"/>
<path d="M1637 5502 c-43 -30 -66 -53 -63 -63 2 -8 56 -91 121 -183 121 -174
138 -206 124 -243 -10 -28 -52 -55 -85 -55 -37 0 -63 29 -192 214 -65 92 -121
168 -125 168 -17 0 -146 -95 -143 -106 9 -25 243 -353 280 -393 51 -54 90 -71
163 -71 73 0 139 30 209 93 93 84 116 179 67 274 -20 38 -235 349 -269 390
l-19 22 -68 -47z m330 -374 c-3 -8 -6 -5 -6 6 -1 11 2 17 5 13 3 -3 4 -12 1
-19z m-293 -177 c-2 -3 -12 3 -22 13 -16 17 -16 18 5 5 12 -7 20 -15 17 -18z"/>
<path d="M6665 5122 c-77 -76 -139 -141 -137 -145 1 -5 -2 -6 -7 -3 -12 8 -33
-18 -23 -29 4 -5 2 -5 -5 -1 -6 3 -16 1 -20 -6 -5 -7 -87 -91 -184 -185 -96
-95 -174 -173 -172 -173 2 0 -2 -6 -9 -14 -7 -8 -15 -13 -18 -12 -3 1 -17 -11
-32 -26 -15 -15 -25 -28 -22 -28 3 0 -1 -6 -8 -14 -7 -8 -17 -13 -22 -13 -5 1
-11 -4 -14 -12 -3 -8 0 -11 7 -7 6 4 11 2 11 -4 0 -7 -7 -9 -16 -6 -10 4 -42
-20 -98 -75 l-82 -80 57 -112 c72 -141 138 -295 178 -417 18 -52 34 -102 37
-110 3 -8 5 -16 5 -17 0 -2 8 -33 19 -70 44 -165 90 -427 90 -518 0 -19 3 -35
8 -35 15 0 -3 -468 -23 -580 -2 -14 -12 -68 -21 -120 -9 -52 -17 -104 -17
-115 -1 -11 -5 -23 -11 -27 -5 -4 -10 -29 -10 -57 0 -28 -3 -46 -6 -41 -4 6
-19 -30 -34 -79 -22 -73 -25 -94 -16 -113 10 -21 10 -21 -3 -6 -13 16 -18 8
-52 -80 -21 -53 -45 -108 -54 -120 -11 -19 -12 -28 -3 -42 8 -14 8 -27 1 -50
-6 -17 -13 -29 -15 -27 -3 2 0 16 6 31 5 15 7 32 4 37 -3 6 -33 -38 -65 -96
-33 -59 -73 -127 -90 -151 -16 -24 -27 -49 -23 -56 4 -6 3 -8 -3 -5 -6 4 -26
-16 -44 -46 -18 -28 -36 -54 -40 -57 -23 -18 -99 -122 -94 -130 3 -5 0 -12 -6
-16 -8 -5 -9 -3 -4 7 4 8 -47 -40 -113 -106 -102 -100 -119 -121 -109 -135 10
-13 10 -13 -5 -2 -14 11 -25 6 -76 -35 -46 -37 -58 -51 -50 -61 17 -19 -7 -41
-24 -23 -11 11 -10 13 5 8 9 -4 17 -2 17 3 0 15 -17 12 -45 -6 -14 -9 -22 -21
-18 -27 3 -6 1 -7 -5 -3 -7 4 -55 -21 -109 -57 -159 -104 -472 -251 -584 -274
-22 -4 -27 -8 -17 -14 8 -6 1 -8 -22 -8 -19 1 -68 -8 -108 -20 -135 -39 -309
-63 -552 -76 -63 -3 -137 -8 -165 -10 -35 -3 -44 -2 -30 5 15 6 6 9 -35 10
-30 0 -81 3 -112 6 -34 4 -64 1 -75 -5 -15 -9 -13 -10 12 -6 24 4 26 3 10 -4
-11 -5 -31 -10 -44 -10 l-24 -1 22 19 c21 18 21 18 -41 25 -81 10 -240 42
-299 61 -25 9 -54 12 -65 9 -10 -4 -16 -3 -11 1 9 10 -102 47 -116 38 -6 -3
-7 -1 -3 5 8 13 -48 27 -65 16 -7 -4 -9 -3 -6 3 4 6 -14 18 -41 28 -87 33
-296 132 -386 184 -48 28 -93 48 -99 44 -5 -3 -7 -1 -4 5 8 12 -89 75 -103 67
-5 -3 -12 0 -16 6 -5 8 -3 9 7 4 27 -15 -5 11 -80 66 -77 56 -83 59 -90 38 -2
-6 1 -9 6 -6 5 3 22 -6 39 -19 l29 -26 -32 22 c-18 12 -33 18 -33 14 0 -5 -5
-3 -12 4 -7 7 -16 12 -22 12 -5 0 -1 -8 10 -19 10 -10 22 -16 27 -14 4 2 10
-2 13 -11 9 -22 152 -118 166 -110 6 4 8 3 5 -3 -9 -14 40 -46 55 -37 6 4 8 3
5 -3 -3 -5 37 -35 90 -67 82 -49 98 -55 105 -42 5 9 14 16 20 16 6 0 5 -6 -3
-16 -10 -13 -10 -17 2 -25 36 -25 52 -30 67 -24 9 3 13 3 9 -1 -9 -10 35 -32
173 -89 184 -75 540 -176 540 -152 0 6 5 6 13 -1 17 -14 131 -35 161 -30 14 3
27 0 29 -5 5 -16 471 -22 587 -7 52 6 114 13 138 16 24 2 51 13 62 24 11 11
32 20 48 19 26 -1 25 -1 -6 -9 -51 -12 -52 -22 -2 -14 177 26 495 137 687 240
133 71 148 82 148 106 0 17 6 22 19 20 12 -2 15 1 11 8 -6 9 -2 9 14 1 26 -14
35 -9 186 108 110 86 311 277 378 361 19 25 58 74 86 109 34 42 49 70 46 82
-3 9 -1 20 4 24 7 3 8 0 5 -9 -3 -9 -4 -16 -1 -16 7 0 98 143 137 215 18 33
41 75 52 92 11 18 16 38 12 44 -4 8 -3 9 4 5 7 -4 12 -3 12 3 0 6 14 41 31 78
149 325 244 833 225 1203 -13 246 -53 530 -78 555 -7 7 -9 0 -5 -20 4 -16 4
-24 1 -17 -3 6 -10 10 -15 6 -14 -8 -11 9 7 34 14 21 12 32 -26 165 -23 78
-47 156 -55 172 -7 17 -20 50 -28 75 -43 126 -203 450 -196 395 1 -5 1 -19 0
-30 -1 -17 -4 -15 -16 9 -11 21 -13 32 -5 40 8 8 9 6 5 -6 -6 -16 -5 -17 19
-5 29 16 386 361 386 374 0 4 -7 0 -14 -10 -12 -15 -15 -16 -26 -2 -11 13 -10
14 5 9 12 -5 16 -4 12 3 -4 6 3 19 16 29 16 14 18 14 9 2 -9 -12 -10 -18 -2
-23 15 -9 61 34 53 49 -3 6 -3 8 2 4 11 -10 216 192 208 205 -3 6 -2 7 4 4 14
-9 151 135 147 156 -1 9 2 17 8 17 6 0 8 -7 4 -15 -8 -22 3 -18 26 8 l19 22
-5 -40 c-6 -43 -10 -62 -19 -85 -3 -8 -10 -37 -16 -65 -5 -27 -21 -96 -34
-153 -24 -99 -24 -102 -6 -97 17 6 19 3 13 -22 -9 -38 -27 -56 -20 -20 5 29
-8 37 -18 11 -12 -31 -7 -45 16 -42 19 3 25 17 48 113 85 349 111 458 113 483
2 15 7 34 11 41 22 35 -12 7 -139 -117z m116 85 c-6 -8 -8 -17 -4 -20 3 -4 1
-7 -5 -7 -14 0 -14 2 -6 24 3 9 11 16 16 16 7 0 6 -5 -1 -13z m-22 -48 c1 8 3
12 6 9 3 -3 1 -16 -4 -29 -7 -17 -10 -19 -10 -6 -1 22 -12 22 -45 -4 -17 -13
-24 -15 -20 -6 3 8 16 19 30 25 13 7 24 17 25 24 0 7 4 4 9 -7 5 -12 9 -14 9
-6z m-12 -96 c-3 -10 -5 -4 -5 12 0 17 2 24 5 18 2 -7 2 -21 0 -30z m-108 5
c-6 -13 -22 -32 -37 -42 -27 -19 -27 -19 -11 0 9 10 25 29 35 42 10 12 20 22
21 22 1 0 -2 -10 -8 -22z m-66 -83 c-22 -16 -38 -8 -23 10 6 8 18 11 26 8 12
-4 12 -8 -3 -18z m144 -32 c-3 -10 -5 -4 -5 12 0 17 2 24 5 18 2 -7 2 -21 0
-30z m-167 2 c0 -7 -30 -13 -34 -7 -3 4 4 9 15 9 10 1 19 0 19 -2z m-66 -56
c-9 -10 -22 -19 -28 -19 -6 0 -4 5 4 10 8 5 11 10 6 10 -5 0 -3 7 4 15 7 8 17
12 22 9 5 -3 2 -14 -8 -25z m-75 -75 c-6 -7 -15 -11 -21 -8 -5 3 -4 12 3 20 6
7 15 11 21 8 5 -3 4 -12 -3 -20z m-80 -80 c-6 -7 -15 -11 -21 -8 -5 3 -4 12 3
20 6 7 15 11 21 8 5 -3 4 -12 -3 -20z m340 -34 c0 -10 -3 -8 -9 5 -12 27 -12
43 0 25 5 -8 9 -22 9 -30z m-516 -140 c-31 -33 -59 -57 -61 -55 -7 7 61 83 74
84 7 1 14 8 18 16 3 8 10 15 15 15 6 0 -15 -27 -46 -60z m-103 -100 c0 -5 -5
-10 -11 -10 -5 0 -7 5 -4 10 3 6 8 10 11 10 2 0 4 -4 4 -10z m-80 -82 c0 -4
-9 -8 -20 -8 -11 0 -20 -4 -20 -10 0 -5 -5 -10 -10 -10 -6 0 -6 7 1 18 11 17
49 25 49 10z m-80 -68 c0 -5 -2 -10 -4 -10 -3 0 -8 5 -11 10 -3 6 -1 10 4 10
6 0 11 -4 11 -10z m5 -125 l18 -30 -21 19 c-12 11 -22 26 -22 34 0 17 -1 18
25 -23z m49 -83 c3 -5 -1 -9 -9 -9 -8 0 -12 4 -9 9 3 4 7 8 9 8 2 0 6 -4 9 -8z
m10 -46 c9 -14 12 -27 7 -30 -5 -3 -14 8 -20 24 -12 36 -9 38 13 6z m17 -59
c-10 -9 -11 -8 -5 6 3 10 9 15 12 12 3 -3 0 -11 -7 -18z m44 -83 l4 -39 -13
35 c-7 19 -11 39 -9 43 8 14 14 1 18 -39z m27 -32 c3 -11 0 -19 -7 -19 -7 0
-10 8 -7 19 2 10 6 18 7 18 1 0 5 -8 7 -18z m18 -70 c0 -15 -2 -15 -10 -2 -13
20 -13 33 0 25 6 -3 10 -14 10 -23z m37 -104 c-3 -7 -5 -2 -5 12 0 14 2 19 5
13 2 -7 2 -19 0 -25z m30 -100 c-3 -8 -6 -5 -6 6 -1 11 2 17 5 13 3 -3 4 -12
1 -19z m0 -70 c-3 -7 -5 -2 -5 12 0 14 2 19 5 13 2 -7 2 -19 0 -25z m73 -272
c0 -65 -6 -56 -13 19 -4 39 -3 54 3 45 5 -8 10 -37 10 -64z m24 -206 c4 -30 3
-36 -3 -20 -12 37 -22 109 -12 85 5 -11 11 -40 15 -65z m3 -492 c-2 -13 -4 -5
-4 17 -1 22 1 32 4 23 2 -10 2 -28 0 -40z m-16 -125 c-9 -16 -10 -15 -11 8 0
14 3 29 8 33 12 12 14 -22 3 -41z m-24 -105 c-3 -8 -6 -5 -6 6 -1 11 2 17 5
13 3 -3 4 -12 1 -19z m10 -40 c-3 -8 -6 -5 -6 6 -1 11 2 17 5 13 3 -3 4 -12 1
-19z m-10 -50 c-3 -8 -6 -5 -6 6 -1 11 2 17 5 13 3 -3 4 -12 1 -19z m-9 -83
c-3 -3 -9 2 -12 12 -6 14 -5 15 5 6 7 -7 10 -15 7 -18z m-125 -372 c5 -26 4
-26 -9 -9 -7 10 -11 23 -8 27 8 14 11 11 17 -18z m-36 -55 c-3 -8 -6 -5 -6 6
-1 11 2 17 5 13 3 -3 4 -12 1 -19z m-9 -43 c-2 -15 -6 -21 -11 -16 -6 6 -7 17
-4 25 9 24 17 19 15 -9z m-78 -155 c0 -5 -5 -10 -11 -10 -5 0 -7 5 -4 10 3 6
8 10 11 10 2 0 4 -4 4 -10z m-26 -82 c-3 -4 -11 -8 -17 -7 -9 0 -9 2 0 5 7 3
9 13 6 22 -4 14 -3 14 5 2 6 -8 8 -18 6 -22z m-32 -40 c-7 -7 -12 -8 -12 -2 0
14 12 26 19 19 2 -3 -1 -11 -7 -17z m-31 -58 c-15 -25 -20 -28 -25 -15 -3 10
-2 14 5 10 6 -4 10 -1 9 6 -1 8 1 25 5 38 7 19 9 21 17 8 5 -11 2 -26 -11 -47z
m-38 -40 c-3 -12 -8 -19 -11 -16 -5 6 5 36 12 36 2 0 2 -9 -1 -20z m-58 -100
c-10 -11 -22 -17 -28 -13 -6 3 0 10 12 15 17 6 21 13 16 26 -5 13 -4 14 6 5
10 -10 9 -17 -6 -33z m-30 -30 c3 -5 1 -10 -4 -10 -6 0 -11 5 -11 10 0 6 2 10
4 10 3 0 8 -4 11 -10z m-23 -42 c-7 -7 -12 -8 -12 -3 0 4 -14 -11 -30 -33 -44
-61 -46 -51 -3 13 25 36 41 51 47 45 7 -7 6 -14 -2 -22z m-99 -124 c-2 -7 -11
-10 -19 -7 -10 4 -12 0 -8 -11 3 -9 1 -16 -5 -16 -14 0 -14 23 -1 36 15 15 39
13 33 -2z m-57 -37 c-2 -14 -36 -65 -36 -54 0 10 29 67 34 67 2 0 3 -6 2 -13z
m-46 -72 c0 -5 -5 -3 -10 5 -5 8 -10 20 -10 25 0 6 5 3 10 -5 5 -8 10 -19 10
-25z m-42 -34 c-13 -15 -26 -27 -30 -24 -9 5 32 53 45 53 4 0 -2 -13 -15 -29z
m-38 -46 c0 -7 -30 -13 -34 -7 -3 4 4 9 15 9 10 1 19 0 19 -2z m-60 -33 c0 -8
-94 -72 -106 -72 -6 0 96 78 104 80 1 0 2 -3 2 -8z m-3322 -47 c15 -14 21 -25
14 -25 -6 0 -12 5 -12 11 0 6 -7 8 -17 5 -10 -4 -14 -4 -10 0 4 4 2 13 -4 21
-19 22 0 14 29 -12z m145 -102 c-7 -2 -19 -2 -25 0 -7 3 -2 5 12 5 14 0 19 -2
13 -5z m2950 -34 c-9 -9 -12 -7 -10 9 1 14 5 18 11 12 7 -7 6 -14 -1 -21z
m-2865 -17 c11 -8 11 -10 -2 -15 -9 -4 -15 -1 -13 5 1 7 -4 12 -12 13 -8 0
-16 6 -19 13 -4 14 8 10 46 -16z m58 -35 c6 0 11 -6 11 -13 0 -9 -7 -8 -26 4
-35 22 -40 27 -16 17 11 -4 25 -8 31 -8z m2680 -22 c-34 -18 -36 -18 -36 -4 0
5 4 8 9 4 5 -3 12 -1 16 5 3 5 14 10 23 10 11 0 6 -6 -12 -15z m-2566 -30 c0
-7 -30 -13 -34 -7 -3 4 4 9 15 9 10 1 19 0 19 -2z m2490 -4 c0 -5 -11 -12 -25
-15 -14 -4 -23 -11 -20 -16 3 -6 -1 -7 -10 -4 -19 8 -18 8 20 28 35 19 35 19
35 7z m-2463 -17 c-3 -3 -12 -4 -19 -1 -8 3 -5 6 6 6 11 1 17 -2 13 -5z m2378
-36 c-11 -6 -23 -15 -26 -20 -3 -5 -14 -5 -24 -1 -17 6 -16 8 10 19 38 17 68
18 40 2z m-2250 -18 c17 -8 16 -8 -7 -7 -16 1 -28 5 -28 9 0 10 9 9 35 -2z
m2178 -23 c-2 -4 -14 -5 -25 -1 -13 4 -18 2 -14 -4 9 -14 -8 -23 -29 -16 -15
6 -14 9 6 19 25 14 70 15 62 2z m-2096 -23 c-3 -3 -12 -4 -19 -1 -8 3 -5 6 6
6 11 1 17 -2 13 -5z m1993 -13 c-8 -5 -31 -11 -50 -15 l-35 -6 35 14 c41 17
75 21 50 7z m-1883 -27 c-3 -3 -12 -4 -19 -1 -8 3 -5 6 6 6 11 1 17 -2 13 -5z
m1792 2 c-2 -2 -15 -9 -29 -15 -24 -11 -24 -11 -6 3 16 13 49 24 35 12z
m-1684 -36 c3 -5 2 -10 -4 -10 -5 0 -13 5 -16 10 -3 6 -2 10 4 10 5 0 13 -4
16 -10z m1610 0 c-3 -5 -12 -10 -18 -10 -7 0 -6 4 3 10 19 12 23 12 15 0z
m-52 -17 c-7 -2 -19 -2 -25 0 -7 3 -2 5 12 5 14 0 19 -2 13 -5z m-1426 -9 c-3
-3 -12 -4 -19 -1 -8 3 -5 6 6 6 11 1 17 -2 13 -5z m1330 -20 c-3 -3 -12 -4
-19 -1 -8 3 -5 6 6 6 11 1 17 -2 13 -5z m-1212 -14 c-27 -12 -43 -12 -25 0 8
5 22 9 30 9 10 0 8 -3 -5 -9z m112 -26 c-3 -3 -12 -4 -19 -1 -8 3 -5 6 6 6 11
1 17 -2 13 -5z m43 -4 c0 -5 -5 -10 -11 -10 -5 0 -7 5 -4 10 3 6 8 10 11 10 2
0 4 -4 4 -10z m773 -7 c-7 -2 -19 -2 -25 0 -7 3 -2 5 12 5 14 0 19 -2 13 -5z
m-623 -13 c0 -5 -4 -10 -10 -10 -5 0 -10 5 -10 10 0 6 5 10 10 10 6 0 10 -4
10 -10z m73 3 c-7 -2 -19 -2 -25 0 -7 3 -2 5 12 5 14 0 19 -2 13 -5z m387 -13
c20 -6 21 -8 5 -8 -11 -1 -38 3 -60 7 l-40 9 35 0 c19 0 46 -4 60 -8z m67 4
c-3 -3 -12 -4 -19 -1 -8 3 -5 6 6 6 11 1 17 -2 13 -5z m-304 -11 c-13 -2 -33
-2 -45 0 -13 2 -3 4 22 4 25 0 35 -2 23 -4z"/>
<path d="M3178 5223 c-28 -3 -48 -10 -52 -19 -3 -9 1 -14 11 -14 9 0 14 -2 11
-5 -3 -4 -18 -3 -34 1 -26 7 -26 8 -9 16 29 12 -82 -1 -200 -23 -55 -10 -101
-23 -103 -28 -1 -4 -15 -6 -30 -4 -22 4 -24 2 -12 -7 12 -9 10 -10 -10 -8 -28
3 -192 -41 -186 -51 2 -3 -8 -6 -22 -7 -36 -1 -234 -89 -224 -99 4 -4 2 -5 -4
-2 -12 7 -177 -74 -211 -103 -10 -8 -31 -21 -46 -27 -15 -7 -33 -17 -40 -23
-7 -6 -49 -36 -94 -68 -106 -74 -174 -132 -168 -142 4 -7 -5 -20 -46 -68 -6
-7 -13 -11 -16 -8 -3 3 8 20 25 38 18 17 29 34 27 37 -7 7 -167 -151 -261
-258 -57 -65 -73 -89 -69 -105 5 -17 4 -18 -5 -6 -9 12 -13 12 -17 2 -3 -7
-16 -26 -30 -42 -20 -24 -22 -33 -13 -50 6 -11 14 -20 18 -20 9 0 52 67 52 82
0 6 3 8 7 5 9 -10 54 54 46 66 -3 6 -1 7 4 4 11 -7 90 82 85 95 -1 5 1 7 5 6
9 -3 198 182 198 193 0 4 4 11 9 16 5 5 6 3 2 -4 -13 -23 3 -14 61 33 76 62
80 67 76 84 -4 13 -3 13 5 1 9 -12 13 -13 27 -1 13 11 13 15 3 22 -9 6 -6 8 8
4 13 -4 32 3 55 20 81 60 403 234 434 234 4 0 21 7 38 15 18 8 64 26 102 39
39 14 60 25 48 25 -12 1 -24 5 -28 10 -6 10 142 47 151 38 3 -3 -15 -9 -41
-13 -33 -4 -43 -9 -34 -16 9 -5 3 -7 -16 -3 -24 5 -27 4 -13 -5 13 -8 38 -4
103 15 47 13 115 30 150 36 36 6 62 15 59 20 -3 5 2 6 10 3 8 -3 70 1 138 9
68 9 182 19 253 22 72 3 144 8 160 11 24 3 26 2 10 -5 -14 -7 3 -10 65 -12
143 -5 164 -7 180 -12 12 -4 109 -19 210 -32 8 -1 22 -5 30 -8 8 -3 63 -17
122 -32 192 -47 348 -102 546 -196 99 -47 284 -150 347 -193 32 -22 75 -29 76
-11 0 5 4 1 8 -10 11 -26 6 -31 -14 -15 -9 7 -18 11 -20 8 -3 -3 13 -17 35
-32 32 -21 44 -24 60 -16 13 7 21 7 26 -2 4 -6 3 -8 -2 -5 -6 3 -16 2 -23 -2
-10 -6 3 -21 45 -51 33 -24 96 -77 142 -118 45 -40 82 -71 82 -68 0 4 6 1 14
-6 8 -7 13 -14 11 -16 -1 -1 28 -32 64 -67 l66 -64 177 176 c97 97 174 181
171 186 -3 6 -1 7 4 4 10 -6 46 25 41 34 -2 2 -1 3 1 1 10 -6 120 112 114 121
-3 6 -1 7 4 4 13 -8 46 27 36 37 -5 4 -3 6 4 4 16 -4 124 102 116 115 -3 5 -1
7 4 4 12 -7 46 26 38 36 -3 4 -2 5 2 2 10 -8 83 66 77 77 -3 5 -1 7 4 6 9 -3
192 166 192 178 0 4 -6 2 -12 -4 -7 -6 -30 -13 -50 -17 -22 -4 -38 -13 -38
-21 0 -8 -8 -14 -17 -14 -15 0 -16 2 -3 10 24 16 8 12 -148 -31 -81 -23 -169
-47 -197 -54 -54 -13 -228 -65 -233 -70 -1 -1 1 -10 4 -19 5 -14 14 -16 43
-11 20 4 40 10 46 13 5 4 17 7 25 9 22 3 205 52 275 74 105 32 120 37 103 38
-10 1 -18 6 -18 12 0 13 43 -12 45 -27 1 -5 -71 -79 -160 -164 -117 -112 -161
-161 -159 -175 2 -23 -19 -58 -29 -48 -11 10 -8 23 4 21 6 -2 13 6 15 16 1 11
-104 -87 -234 -217 -131 -130 -242 -237 -248 -237 -6 0 -22 12 -36 28 -68 74
-174 168 -186 165 -7 -3 -11 0 -10 5 2 6 -24 33 -57 61 -43 37 -65 49 -80 45
-15 -4 -16 -3 -6 4 11 8 9 13 -11 26 -14 9 -35 15 -48 14 -12 -2 -25 3 -27 10
-3 6 0 12 7 12 6 0 8 -4 5 -10 -7 -11 8 -14 18 -4 19 19 -420 281 -451 269 -7
-2 -11 -1 -8 4 11 17 -285 138 -305 125 -7 -4 -9 -3 -6 3 4 6 -32 21 -86 37
-51 15 -104 32 -119 38 -18 7 -32 6 -45 -1 -16 -9 -16 -10 7 -11 14 -1 20 -4
13 -6 -6 -3 -26 -1 -45 5 -24 7 -27 9 -11 10 12 1 24 5 27 10 6 9 -212 56
-221 47 -3 -3 5 -7 18 -10 13 -3 33 -7 44 -9 12 -3 7 -5 -12 -6 -21 -1 -40 6
-53 19 -30 30 -235 50 -488 48 -114 -1 -228 -3 -254 -5z m176 -18 c-4 -10 -18
-15 -43 -14 -27 1 -30 3 -11 6 14 3 29 9 35 14 14 14 25 11 19 -6z m445 -11
c10 -9 -35 -3 -49 6 -11 8 -7 9 15 4 17 -4 32 -8 34 -10z m-561 -1 c-10 -2
-26 -2 -35 0 -10 3 -2 5 17 5 19 0 27 -2 18 -5z m-178 -13 c13 -8 13 -10 -2
-10 -9 0 -20 5 -23 10 -8 13 5 13 25 0z m-57 -7 c-7 -2 -19 -2 -25 0 -7 3 -2
5 12 5 14 0 19 -2 13 -5z m887 -3 c0 -5 -7 -7 -15 -4 -8 4 -15 8 -15 10 0 2 7
4 15 4 8 0 15 -4 15 -10z m-963 -7 c-9 -2 -14 -9 -10 -15 4 -8 0 -9 -11 -5
-10 4 -21 7 -24 8 -13 1 33 18 48 17 10 0 9 -2 -3 -5z m1113 -13 c0 -5 -4 -10
-9 -10 -6 0 -13 5 -16 10 -3 6 1 10 9 10 9 0 16 -4 16 -10z m2470 6 c0 -2 -6
-9 -14 -15 -11 -9 -16 -9 -22 0 -4 7 -3 9 4 5 6 -3 13 -2 17 4 6 10 15 14 15
6z m-2425 -16 c-3 -5 -12 -10 -18 -10 -7 0 -6 4 3 10 19 12 23 12 15 0z m2365
-20 c0 -11 -2 -20 -4 -20 -2 0 -6 9 -9 20 -3 11 -1 20 4 20 5 0 9 -9 9 -20z
m-2213 -16 c-3 -3 -12 -4 -19 -1 -8 3 -5 6 6 6 11 1 17 -2 13 -5z m2056 -1
c-7 -2 -19 -2 -25 0 -7 3 -2 5 12 5 14 0 19 -2 13 -5z m-2023 -13 c0 -5 -10
-10 -22 -9 -22 0 -22 1 -3 9 11 5 21 9 23 9 1 1 2 -3 2 -9z m1937 -6 c-3 -3
-12 -4 -19 -1 -8 3 -5 6 6 6 11 1 17 -2 13 -5z m-3627 -28 c-14 -7 -38 -16
-54 -20 -26 -6 -28 -5 -16 9 7 8 20 13 29 10 9 -2 23 0 31 5 8 5 20 10 25 9 6
0 -1 -6 -15 -13z m3840 10 c0 -2 -9 -6 -20 -9 -11 -3 -18 -1 -14 4 5 9 34 13
34 5z m-309 -17 c-14 -5 -28 -6 -32 -2 -4 4 6 9 24 10 30 1 31 1 8 -8z m-58
-16 c-7 -2 -21 -2 -30 0 -10 3 -4 5 12 5 17 0 24 -2 18 -5z m308 -12 c-6 -10
-7 -21 -4 -25 3 -3 1 -6 -5 -6 -22 0 -27 -2 -42 -13 -8 -6 1 6 20 26 40 42 45
44 31 18z m-3887 0 c4 -5 -4 -7 -16 -4 -19 4 -20 3 -8 -6 13 -9 13 -11 -2 -11
-21 0 -32 17 -16 23 21 9 36 8 42 -2z m3511 -1 c-11 -5 -29 -8 -40 -8 -16 0
-15 2 5 8 34 11 60 11 35 0z m-1465 -24 c0 -2 -11 -1 -25 2 -14 2 -22 8 -19
13 4 8 44 -6 44 -15z m-2120 4 c-8 -5 -22 -9 -30 -9 -10 0 -8 3 5 9 27 12 43
12 25 0z m2190 -15 c0 -7 -39 -12 -49 -5 -7 4 1 7 18 8 17 0 31 -1 31 -3z m14
-17 c-5 -8 0 -9 16 -5 16 4 20 3 12 -5 -5 -5 -20 -7 -32 -3 -18 6 -20 9 -9 16
19 12 22 11 13 -3z m-2289 -18 c3 -6 -1 -7 -9 -4 -18 7 -21 14 -7 14 6 0 13
-4 16 -10z m3967 -12 c-7 -7 -12 -8 -12 -2 0 14 12 26 19 19 2 -3 -1 -11 -7
-17z m-3997 2 c3 -5 1 -10 -4 -10 -6 0 -11 5 -11 10 0 6 2 10 4 10 3 0 8 -4
11 -10z m2375 0 c-20 -13 -33 -13 -25 0 3 6 14 10 23 10 15 0 15 -2 2 -10z
m-2414 -17 c-2 -9 -8 -19 -15 -21 -10 -3 -10 0 -2 17 14 25 20 27 17 4z m2439
7 c-3 -5 -1 -10 6 -10 7 0 10 -2 7 -5 -3 -3 -13 -2 -22 1 -14 5 -15 9 -4 15
17 11 20 11 13 -1z m1571 -12 c-4 -27 -23 -51 -31 -39 -4 7 1 21 11 32 20 22
23 23 20 7z m-4056 -23 c-7 -8 -17 -15 -23 -15 -6 0 -2 7 9 15 25 19 30 19 14
0z m2575 3 c3 -3 -8 -5 -25 -3 -17 1 -33 5 -36 8 -3 3 8 4 25 3 17 -1 33 -5
36 -8z m50 -36 c-3 -3 -11 0 -18 7 -9 10 -8 11 6 5 10 -3 15 -9 12 -12z m1385
8 c0 -5 -5 -10 -11 -10 -5 0 -7 5 -4 10 3 6 8 10 11 10 2 0 4 -4 4 -10z m-16
-29 c6 -9 -14 -21 -42 -27 -9 -2 -8 4 4 17 19 21 30 24 38 10z m-1275 -21 c26
-14 26 -15 -1 -17 -13 -1 -34 7 -48 18 l-25 19 27 -4 c14 -2 36 -9 47 -16z
m-2879 -20 c-8 -6 -22 -10 -30 -10 -8 0 -4 6 10 13 27 15 44 12 20 -3z m2960
-34 c0 0 -12 -2 -27 -3 -19 -1 -22 1 -12 8 10 6 10 9 2 9 -7 0 -13 5 -13 10 0
6 11 3 25 -6 14 -9 25 -17 25 -18z m1130 24 c0 -5 -5 -10 -11 -10 -5 0 -7 5
-4 10 3 6 8 10 11 10 2 0 4 -4 4 -10z m-1079 -63 c-1 -12 -15 -9 -19 4 -3 6 1
10 8 8 6 -3 11 -8 11 -12z m984 -47 c4 -6 -1 -7 -11 -3 -11 4 -15 2 -11 -4 4
-6 -3 -13 -14 -16 -20 -5 -20 -5 -3 14 19 21 30 24 39 9z m-4185 -25 c-13 -15
-43 -9 -34 7 4 6 10 5 15 -3 8 -13 13 -5 10 14 -1 5 3 6 9 2 8 -5 8 -11 0 -20z
m-40 -25 c0 -5 -5 -10 -11 -10 -5 0 -7 5 -4 10 3 6 8 10 11 10 2 0 4 -4 4 -10z
m4126 -32 c-4 -27 -23 -51 -31 -39 -4 7 1 21 11 32 20 22 23 23 20 7z m-636
-48 c0 -5 -5 -10 -11 -10 -5 0 -7 5 -4 10 3 6 8 10 11 10 2 0 4 -4 4 -10z
m582 -13 c-7 -8 -9 -17 -5 -21 4 -4 -1 -4 -10 0 -10 3 -17 3 -16 -2 1 -5 -1
-17 -6 -27 -6 -15 -10 -16 -16 -5 -5 8 3 24 24 45 31 30 52 38 29 10z m-4219
-43 c-15 -13 -32 -24 -38 -23 -5 0 -4 3 3 6 6 2 12 9 12 15 0 14 33 38 43 31
4 -3 -5 -16 -20 -29z m3703 -4 c-1 -8 7 -15 18 -15 22 0 33 -20 17 -30 -7 -3
-8 0 -5 10 4 10 2 14 -8 10 -8 -3 -24 6 -37 19 -22 24 -22 25 -4 23 11 0 20
-8 19 -17z m435 -29 c-6 -10 -7 -21 -3 -25 3 -4 -2 -4 -11 0 -10 3 -17 3 -15
-2 3 -13 -22 -57 -29 -50 -9 8 -34 -15 -27 -25 3 -5 -2 -6 -11 -3 -9 4 -15 2
-13 -2 4 -12 -40 -59 -47 -52 -5 4 154 178 163 178 1 0 -2 -8 -7 -19z m-4189
-18 c-6 -9 -17 -18 -27 -19 -16 -2 -15 -1 1 17 21 24 38 25 26 2z m3823 -14
c-4 -5 -1 -9 4 -9 6 0 11 -5 11 -12 0 -6 -8 -3 -20 7 -19 17 -18 41 1 29 5 -3
7 -10 4 -15z m-3899 -48 c-16 -16 -26 -33 -23 -38 3 -5 2 -15 -4 -23 -6 -10
-9 -11 -9 -2 0 6 -5 12 -11 12 -6 0 -8 -7 -4 -17 5 -15 4 -16 -6 -6 -10 10 -7
19 17 45 17 18 37 40 45 49 8 10 16 15 18 13 3 -2 -8 -17 -23 -33z m3954 9 c0
-5 -2 -10 -4 -10 -3 0 -8 5 -11 10 -3 6 -1 10 4 10 6 0 11 -4 11 -10z m32 -34
c7 4 8 2 4 -4 -7 -11 -36 -6 -36 7 0 16 15 22 18 7 2 -9 8 -13 14 -10z m63
-74 c-3 -3 -6 -3 -7 -1 -2 2 -14 18 -28 34 l-25 30 32 -29 c18 -16 31 -32 28
-34z m-4127 3 c0 -27 -13 -41 -23 -26 -4 8 14 51 21 51 1 0 2 -11 2 -25z
m4156 -26 c-3 -5 -10 -7 -15 -3 -5 3 -7 10 -3 15 3 5 10 7 15 3 5 -3 7 -10 3
-15z m-4204 -63 c0 -2 -7 -9 -15 -16 -13 -11 -14 -10 -9 4 5 14 24 23 24 12z"/>
<path d="M4887 4819 c7 -7 15 -10 18 -7 3 3 -2 9 -12 12 -14 6 -15 5 -6 -5z"/>
<path d="M1050 5001 c-45 -25 -302 -285 -289 -294 2 -2 45 -41 94 -87 301
-283 370 -346 385 -357 15 -11 32 4 130 110 159 173 188 243 135 333 -45 76
-151 118 -213 85 -16 -8 -17 -3 -17 53 0 53 -4 68 -28 99 -32 42 -93 77 -134
77 -15 -1 -44 -9 -63 -19z m-20 -46 c0 -2 -10 -9 -22 -15 -22 -11 -22 -10 -4
4 21 17 26 19 26 11z m110 -160 c17 -21 5 -58 -32 -100 l-31 -36 -39 38 -38
37 37 38 c40 41 81 50 103 23z m-129 -102 c13 -16 12 -17 -3 -4 -10 7 -18 15
-18 17 0 8 8 3 21 -13z m309 -63 c11 -11 20 -26 20 -34 0 -14 -67 -106 -77
-106 -12 0 -73 63 -73 75 0 13 59 70 80 78 25 9 29 8 50 -13z m-150 -44 c0 -2
-8 -10 -17 -17 -16 -13 -17 -12 -4 4 13 16 21 21 21 13z m-10 -214 c0 -1 -9 2
-20 8 -11 6 -20 15 -20 20 0 6 9 2 20 -7 11 -10 20 -19 20 -21z m95 -90 c-3
-3 -11 0 -18 7 -9 10 -8 11 6 5 10 -3 15 -9 12 -12z"/>
<path d="M3443 4713 c3 -10 26 -69 51 -131 l47 -112 -3 -634 -3 -633 -68 -134
c-68 -135 -141 -249 -164 -257 -10 -3 -13 72 -13 352 l0 356 55 93 c30 50 55
99 55 107 0 12 -19 15 -109 15 -60 0 -112 -2 -114 -5 -3 -3 -25 -45 -49 -95
l-43 -90 0 -305 0 -305 38 -3 37 -3 0 -202 c0 -111 -5 -220 -10 -242 -10 -43
-40 -75 -71 -75 -18 0 -19 12 -19 260 l0 260 -40 0 -40 0 -2 -257 -3 -258
-430 -3 -430 -2 -15 62 c-8 39 -15 138 -17 261 l-4 197 436 0 435 0 0 298 0
298 45 88 c25 49 45 99 45 112 l0 24 -610 0 c-335 0 -610 -3 -610 -7 0 -5 16
-35 36 -68 21 -33 47 -84 60 -113 l24 -53 0 -539 0 -540 -27 -17 c-23 -16 -57
-18 -241 -21 l-215 -3 -71 -63 -72 -63 395 -6 c218 -4 596 -7 840 -7 l444 0
-7 -30 c-3 -17 -17 -47 -31 -68 -19 -27 -25 -50 -25 -88 0 -91 26 -87 -472
-85 l-433 1 -79 -67 -79 -68 1899 -3 c1493 -2 1904 0 1922 10 22 11 72 94 72
118 0 7 -144 10 -440 10 l-440 0 0 55 c0 44 -8 69 -43 137 -38 75 -160 275
-272 448 -99 154 -271 431 -316 509 l-49 85 0 616 0 615 45 130 c25 72 45 131
45 133 0 1 -22 2 -49 2 l-49 0 -33 -77 c-62 -150 -59 -99 -59 -935 l0 -769 57
2 c51 2 58 0 79 -27 90 -111 384 -655 384 -708 0 -11 -4 -26 -8 -32 -12 -18
-56 -44 -74 -44 -17 0 -66 76 -160 245 -25 44 -70 125 -100 180 -92 166 -197
378 -192 387 3 4 -24 8 -60 8 l-66 0 0 761 0 760 34 102 c19 56 36 116 38 132
l3 30 -299 3 c-281 2 -298 1 -293 -15z m415 -660 l3 -33 -100 0 c-98 0 -101 1
-107 24 -10 42 1 47 104 44 l97 -3 3 -32z m0 -264 l-3 -31 -99 0 c-97 0 -100
1 -102 24 -1 13 0 26 3 31 2 4 49 7 104 7 l100 0 -3 -31z m2 -269 l0 -30 -100
0 c-104 0 -121 7 -106 45 4 12 26 15 106 15 l100 0 0 -30z m-990 -230 l0 -30
-100 0 -100 0 0 30 0 30 100 0 100 0 0 -30z m988 -87 l3 -33 -100 0 c-55 0
-102 3 -104 8 -3 4 -3 20 0 35 l5 28 97 -3 96 -3 3 -32z m-988 -113 l0 -30
-100 0 -100 0 0 30 0 30 100 0 100 0 0 -30z m1114 -207 c18 -25 64 -109 102
-186 38 -76 100 -198 137 -270 118 -228 159 -318 153 -332 -3 -8 -17 -22 -33
-32 -25 -17 -66 -18 -583 -21 -400 -2 -561 0 -576 9 -12 6 -31 28 -43 50 l-22
39 112 217 c130 252 243 452 296 523 l37 50 193 0 193 0 34 -47z"/>
<path d="M3660 2695 c0 -25 0 -25 95 -25 95 0 95 0 95 25 0 25 0 25 -95 25
-95 0 -95 0 -95 -25z"/>
<path d="M3673 2534 c-18 -8 -16 -41 3 -48 9 -3 52 -6 95 -6 l80 0 -3 28 c-3
27 -4 27 -83 29 -44 1 -86 -1 -92 -3z"/>
<path d="M3673 2343 c-18 -7 -16 -40 3 -47 9 -3 51 -6 95 -6 l79 0 0 30 0 30
-82 -1 c-46 0 -89 -3 -95 -6z"/>
<path d="M570 4415 c-23 -42 -41 -77 -39 -79 5 -5 533 -322 559 -336 16 -9 25
0 65 67 38 62 44 78 33 88 -20 18 -555 335 -565 335 -5 0 -29 -34 -53 -75z
m74 27 c3 -5 -1 -9 -9 -9 -8 0 -12 4 -9 9 3 4 7 8 9 8 2 0 6 -4 9 -8z m395
-378 c14 -12 -19 -1 -35 12 -18 14 -18 14 6 3 14 -6 27 -13 29 -15z"/>
<path d="M1271 4064 c-63 -97 -167 -296 -195 -370 -73 -198 -92 -257 -122
-374 -19 -74 -32 -145 -29 -157 3 -13 2 -23 -3 -23 -26 0 -56 -355 -49 -594 5
-172 7 -190 26 -210 21 -23 29 -66 11 -66 -5 0 -7 6 -4 14 3 8 1 23 -6 33 -26
41 16 -215 71 -429 32 -126 85 -287 100 -302 5 -6 9 -17 9 -25 0 -9 7 -29 15
-45 8 -15 15 -32 15 -37 0 -18 91 -202 97 -196 3 4 1 12 -4 19 -7 8 -7 21 -2
33 9 18 9 18 5 -2 -2 -13 0 -26 5 -29 6 -3 7 -14 4 -25 -7 -22 24 -81 38 -72
6 3 7 1 3 -5 -4 -6 -1 -21 6 -34 29 -53 143 -234 157 -251 15 -17 13 -22 -26
-57 -23 -22 -36 -41 -30 -44 7 -2 5 -5 -5 -5 -9 -1 -27 -14 -40 -29 -22 -26
-30 -32 -45 -32 -4 0 2 -7 13 -15 16 -13 17 -14 1 -9 -21 7 -55 -20 -68 -54
-5 -12 -14 -22 -21 -22 -17 0 -159 -145 -151 -154 4 -3 0 -6 -7 -6 -19 0 -160
-142 -153 -153 3 -6 2 -7 -4 -4 -13 8 -166 -147 -156 -158 4 -4 3 -5 -3 -2 -6
3 -31 -14 -55 -39 -42 -43 -43 -46 -25 -60 18 -13 37 3 267 233 225 224 247
249 244 276 -2 16 -1 27 2 24 8 -9 32 17 25 27 -3 5 0 6 6 2 14 -8 0 -42 -20
-49 -7 -2 -10 -8 -6 -12 9 -10 61 43 53 55 -3 5 0 7 9 4 8 -3 19 3 26 15 7 14
7 21 0 21 -5 0 -1 9 10 20 12 12 25 18 30 15 5 -3 52 38 105 90 l96 96 -52 79
c-46 70 -69 90 -69 59 0 -6 4 -8 8 -5 4 2 8 -4 8 -15 0 -24 -3 -24 -16 2 -8
15 -8 24 0 34 9 11 6 22 -14 52 -14 21 -26 41 -26 44 0 4 -12 28 -26 54 -20
35 -29 44 -36 33 -7 -10 -8 -9 -4 5 7 22 -64 168 -77 160 -6 -3 -7 -1 -3 5 6
10 -29 109 -43 122 -4 3 -7 12 -8 20 -1 8 -13 47 -28 85 -70 181 -142 469
-167 665 -20 161 -17 595 6 740 10 63 20 126 22 140 2 14 17 77 33 140 41 162
93 304 172 476 21 47 27 70 20 78 -8 9 -7 13 4 13 8 0 12 -5 9 -11 -3 -6 2 -2
10 9 9 11 14 25 11 33 -2 7 -1 11 3 9 4 -2 34 42 68 98 53 91 59 106 49 125
-11 21 -16 16 -74 -76z m69 56 c0 -5 -2 -10 -4 -10 -3 0 -8 5 -11 10 -3 6 -1
10 4 10 6 0 11 -4 11 -10z m-35 -56 c-8 -16 -15 -23 -15 -16 0 13 22 53 27 48
2 -2 -3 -16 -12 -32z m-27 -60 c-10 -21 -13 -23 -21 -9 -5 10 -4 21 3 30 19
22 31 8 18 -21z m-35 -38 c7 -17 -20 -30 -29 -14 -4 7 -3 8 4 4 7 -4 12 -1 12
8 0 20 6 20 13 2z m-40 -61 c-3 -9 -8 -14 -10 -11 -3 3 -2 9 2 15 9 16 15 13
8 -4z m-62 -152 c-12 -20 -14 -14 -5 12 4 9 9 14 11 11 3 -2 0 -13 -6 -23z
m-18 -28 c4 -8 2 -17 -3 -20 -6 -4 -10 3 -10 14 0 25 6 27 13 6z m-47 -93
c-15 -15 -15 -15 -4 10 7 15 15 23 17 17 2 -6 -4 -18 -13 -27z m-23 -87 c-3
-9 -8 -14 -10 -11 -3 3 -2 9 2 15 9 16 15 13 8 -4z m-56 -197 c-3 -8 -6 -5 -6
6 -1 11 2 17 5 13 3 -3 4 -12 1 -19z m-36 -105 c-9 -16 -10 -14 -11 12 0 21 3
26 11 18 8 -8 8 -16 0 -30z m-14 -60 c-3 -10 -5 -4 -5 12 0 17 2 24 5 18 2 -7
2 -21 0 -30z m0 -55 c-3 -8 -6 -5 -6 6 -1 11 2 17 5 13 3 -3 4 -12 1 -19z
m-30 -175 c-3 -10 -5 -4 -5 12 0 17 2 24 5 18 2 -7 2 -21 0 -30z m-20 -445
c-2 -18 -4 -6 -4 27 0 33 2 48 4 33 2 -15 2 -42 0 -60z m40 -310 c-3 -8 -6 -5
-6 6 -1 11 2 17 5 13 3 -3 4 -12 1 -19z m0 -50 c-3 -7 -5 -2 -5 12 0 14 2 19
5 13 2 -7 2 -19 0 -25z m40 -190 c-3 -7 -5 -2 -5 12 0 14 2 19 5 13 2 -7 2
-19 0 -25z m20 -70 c-3 -8 -6 -5 -6 6 -1 11 2 17 5 13 3 -3 4 -12 1 -19z m25
-100 c-8 -8 -9 -4 -5 13 4 13 8 18 11 10 2 -7 -1 -18 -6 -23z m48 -155 c-11
-17 -11 -17 -6 0 3 10 6 24 7 30 0 9 2 9 5 0 3 -7 0 -20 -6 -30z m27 -55 c-3
-8 -6 -5 -6 6 -1 11 2 17 5 13 3 -3 4 -12 1 -19z m91 -233 c-3 -3 -9 2 -12 12
-6 14 -5 15 5 6 7 -7 10 -15 7 -18z m89 -157 c-3 -8 -6 -5 -6 6 -1 11 2 17 5
13 3 -3 4 -12 1 -19z m18 -19 c-5 -16 -4 -19 5 -14 9 6 11 4 5 -4 -10 -18 -27
2 -19 22 9 25 17 21 9 -4z m31 -53 c15 -16 18 -26 6 -26 -4 0 -13 9 -20 20
-14 23 -7 26 14 6z m134 -207 c0 -4 -4 -10 -10 -14 -5 -3 -6 -13 -3 -22 4 -11
3 -14 -5 -9 -7 4 -12 1 -12 -7 0 -8 -9 -17 -20 -20 -18 -5 -18 -3 5 25 19 22
24 37 20 61 -5 30 -4 31 10 13 8 -11 15 -23 15 -27z m-98 -129 c-48 -45 -58
-50 -40 -20 7 11 16 20 21 20 4 0 5 4 2 10 -3 6 1 7 9 4 9 -4 18 1 22 10 3 9
11 16 18 16 6 0 -8 -18 -32 -40z m-230 -232 c-9 -9 -15 -9 -24 1 -9 10 -9 12
-1 7 6 -3 15 -1 18 5 4 5 10 8 13 4 3 -3 0 -11 -6 -17z m-37 -38 c-10 -11 -22
-17 -27 -14 -5 3 -1 12 9 20 27 20 39 17 18 -6z m-45 -44 c-7 -7 -13 -7 -20 0
-6 6 -3 10 10 10 13 0 16 -4 10 -10z m-50 -50 c0 -2 -7 -9 -15 -16 -13 -11
-14 -10 -9 4 5 14 24 23 24 12z m-60 -56 c0 -5 -4 -10 -10 -10 -5 0 -10 5 -10
10 0 6 5 10 10 10 6 0 10 -4 10 -10z m-155 -160 c-3 -5 -10 -10 -16 -10 -5 0
-9 5 -9 10 0 6 7 10 16 10 8 0 12 -4 9 -10z"/>
<path d="M1265 4019 c-4 -6 -5 -12 -2 -15 2 -3 7 2 10 11 7 17 1 20 -8 4z"/>
<path d="M473 4119 c-60 -18 -97 -70 -172 -245 -66 -153 -74 -184 -51 -184 8
0 111 -43 448 -187 84 -36 154 -64 156 -62 6 7 66 151 66 159 0 4 -45 27 -100
50 -55 23 -102 46 -105 50 -2 4 52 12 121 19 69 7 130 14 137 17 13 4 93 192
85 199 -2 2 -71 -9 -153 -25 -83 -17 -157 -30 -165 -30 -12 0 -15 14 -15 63 0
54 -4 69 -27 99 -47 62 -154 99 -225 77z m117 -209 c11 -11 20 -27 20 -35 0
-16 -29 -96 -40 -108 -8 -9 -110 32 -110 45 0 11 38 88 52 106 16 18 55 15 78
-8z m-154 -88 c-17 -16 -18 -16 -5 5 7 12 15 20 18 17 3 -2 -3 -12 -13 -22z"/>
<path d="M150 3348 c-13 -73 -33 -188 -45 -255 l-21 -122 20 -4 c57 -13 167
-30 171 -26 2 3 9 38 16 79 6 41 12 76 14 78 1 2 107 -16 235 -38 128 -23 236
-37 240 -33 12 13 32 165 23 172 -4 4 -111 25 -236 47 l-228 39 7 50 c5 28 8
66 9 85 l0 34 -70 13 c-120 20 -108 31 -135 -119z"/>
<path d="M486 2810 c-61 -19 -102 -74 -142 -193 -27 -79 -39 -97 -64 -97 -26
0 -44 52 -37 110 7 56 28 103 65 143 l26 28 -104 -3 -104 -3 -25 -50 c-20 -40
-26 -68 -29 -145 -4 -89 -2 -98 25 -150 38 -73 94 -112 168 -118 109 -9 176
42 224 173 39 103 55 130 76 130 30 0 47 -42 40 -103 -6 -61 -22 -97 -67 -147
l-31 -36 99 3 99 3 29 54 c22 41 30 72 34 127 8 123 -36 217 -121 261 -36 18
-122 26 -161 13z m215 -87 c13 -16 12 -17 -3 -4 -10 7 -18 15 -18 17 0 8 8 3
21 -13z m-540 -320 c13 -16 12 -17 -3 -4 -10 7 -18 15 -18 17 0 8 8 3 21 -13z"/>
<path d="M2640 2755 l0 -26 98 3 c92 3 97 4 100 26 3 22 1 22 -97 22 l-101 0
0 -25z"/>
<path d="M2647 2594 c-4 -4 -7 -18 -7 -31 0 -24 1 -24 98 -21 96 3 97 3 97 28
0 25 -1 25 -90 28 -50 2 -94 0 -98 -4z"/>
<path d="M690 2233 c-41 -7 -186 -33 -323 -56 -136 -24 -250 -46 -253 -50 -6
-6 16 -152 27 -168 4 -7 99 5 300 41 162 28 309 54 327 57 18 3 34 8 36 12 5
8 -24 165 -32 172 -4 3 -41 0 -82 -8z"/>
<path d="M502 1885 c-120 -27 -209 -83 -249 -158 -31 -57 -22 -160 30 -325 25
-79 47 -146 50 -148 4 -4 633 183 645 192 6 4 -72 252 -94 295 -30 60 -78 107
-132 131 -57 26 -170 32 -250 13z m196 -182 c25 -16 53 -71 55 -111 2 -23 -6
-27 -148 -72 -82 -26 -153 -44 -158 -40 -13 11 -30 115 -24 142 20 78 197 130
275 81z"/>
<path d="M2117 1630 c-123 -31 -176 -108 -185 -265 -5 -102 13 -193 53 -260
87 -149 338 -151 431 -3 38 60 54 129 54 235 0 199 -71 287 -241 298 -41 2
-91 0 -112 -5z m-47 -44 c0 -2 -7 -7 -16 -10 -8 -3 -12 -2 -9 4 6 10 25 14 25
6z m206 -163 c44 -52 39 -193 -9 -241 -19 -18 -36 -25 -66 -25 -47 0 -69 15
-88 60 -16 39 -17 153 -2 187 27 58 124 70 165 19z"/>
<path d="M2550 1315 l0 -315 75 0 75 0 2 198 3 197 43 -174 c61 -243 47 -221
137 -221 91 0 81 -15 131 205 19 88 37 162 40 164 2 2 4 -80 4 -182 l0 -187
75 0 75 0 0 315 0 315 -124 0 -125 0 -10 -52 c-6 -29 -24 -115 -40 -192 -18
-89 -30 -130 -34 -115 -3 13 -22 99 -43 192 l-37 167 -124 0 -123 0 0 -315z"/>
<path d="M3406 1578 c-25 -88 -156 -568 -156 -574 0 -3 39 -3 87 -2 l88 3 14
63 15 63 85 -3 84 -3 16 -60 16 -60 88 -3 c67 -2 87 0 87 11 0 7 -20 89 -45
182 -25 94 -59 224 -76 290 -17 66 -33 126 -35 133 -2 9 -37 12 -128 12 l-125
0 -15 -52z m179 -286 c-2 -2 -21 -5 -44 -6 -30 -2 -41 1 -41 11 0 12 26 118
37 153 3 8 16 -23 28 -70 13 -47 22 -86 20 -88z m78 -187 c-3 -9 -8 -14 -10
-11 -3 3 -2 9 2 15 9 16 15 13 8 -4z"/>
<path d="M3880 1315 l0 -315 190 0 190 0 0 85 0 85 -105 0 -105 0 0 230 0 230
-85 0 -85 0 0 -315z"/>
<path d="M4466 1622 c-2 -4 -28 -93 -56 -197 -29 -105 -65 -237 -81 -295 -16
-58 -29 -111 -29 -117 0 -9 23 -13 80 -13 90 0 88 -2 110 88 l11 42 84 0 84 0
10 -37 c5 -21 13 -50 17 -65 6 -28 6 -28 95 -28 49 0 89 2 89 5 0 3 -9 38 -19
78 -11 39 -45 169 -76 287 -31 118 -60 225 -65 238 -9 21 -15 22 -129 22 -66
0 -122 -3 -125 -8z m148 -244 c22 -94 23 -93 -26 -93 -24 1 -43 5 -43 10 1 29
40 164 45 158 4 -5 15 -38 24 -75z"/>
<path d="M4925 1617 c-3 -7 -4 -147 -3 -312 l3 -300 134 -3 c219 -4 291 20
326 113 31 79 1 168 -65 195 l-30 12 33 22 c47 32 69 80 64 144 -8 115 -64
141 -300 142 -118 0 -159 -3 -162 -13z m283 -159 c35 -35 -7 -78 -75 -78 l-43
0 0 45 0 45 53 0 c29 0 58 -5 65 -12z m132 -72 c0 -2 -8 -10 -17 -17 -16 -13
-17 -12 -4 4 13 16 21 21 21 13z m-49 -149 c-10 -9 -11 -8 -5 6 3 10 9 15 12
12 3 -3 0 -11 -7 -18z m-97 3 c20 -7 26 -17 26 -39 0 -37 -23 -51 -84 -51
l-46 0 0 50 0 50 39 0 c22 0 51 -4 65 -10z"/>
<path d="M1727 931 c-26 -27 -65 -65 -88 -84 -26 -23 -38 -40 -33 -48 4 -7 3
-10 -3 -6 -12 7 -60 -41 -63 -63 -4 -26 0 -40 10 -40 5 0 8 13 6 29 -2 23 0
28 12 23 9 -3 13 -1 9 5 -4 6 0 16 8 23 8 7 15 9 15 5 0 -5 10 0 22 11 19 15
20 16 9 2 -30 -39 1 -14 65 52 37 39 72 70 79 70 6 0 30 -16 52 -34 28 -25 46
-33 61 -29 12 3 22 8 22 12 0 6 -71 69 -121 108 -13 11 -23 5 -62 -36z m63 25
c0 -3 -4 -8 -10 -11 -5 -3 -10 -1 -10 4 0 6 5 11 10 11 6 0 10 -2 10 -4z m-37
-36 c-3 -11 -9 -17 -15 -14 -5 3 -4 12 3 20 16 19 18 18 12 -6z m127 -46 c0
-2 -9 -2 -19 -1 -11 0 -17 5 -15 9 3 4 0 8 -5 8 -6 0 -11 7 -11 15 0 11 6 10
25 -7 14 -12 25 -23 25 -24z m-157 5 c-9 -9 -12 -7 -10 9 1 14 5 18 11 12 7
-7 6 -14 -1 -21z m-50 -39 c-8 -29 -29 -44 -36 -26 -4 11 -1 13 11 9 9 -3 14
-3 10 2 -4 4 -3 14 3 22 15 18 18 16 12 -7z"/>
<path d="M1590 758 c0 -6 -7 -20 -17 -30 -9 -10 -12 -18 -6 -18 5 0 19 11 30
24 17 20 19 26 7 30 -8 3 -14 0 -14 -6z"/>
<path d="M1493 700 c-18 -20 -33 -43 -33 -49 0 -7 -4 -10 -8 -7 -9 5 -502
-485 -502 -498 0 -5 6 -4 13 2 10 8 13 6 14 -8 1 -11 -2 -22 -8 -25 -5 -3 -6
0 -4 7 4 9 -2 14 -15 15 -24 2 -26 -10 -4 -27 13 -12 25 -3 85 56 38 37 69 74
69 82 0 7 4 11 9 8 5 -3 14 1 20 8 10 11 9 16 -4 23 -15 9 -15 11 1 24 10 8
15 9 11 2 -11 -17 11 -27 28 -13 21 18 19 44 -2 36 -15 -6 -15 -5 1 13 19 21
36 20 36 -2 0 -7 -4 -6 -10 3 -6 9 -10 10 -10 3 0 -27 19 -19 64 26 27 28 45
54 41 60 -3 6 -12 9 -18 5 -7 -3 -4 1 5 9 10 8 15 17 11 21 -4 4 0 4 9 1 11
-4 18 0 23 15 6 17 9 19 22 9 12 -11 30 2 109 83 84 86 112 120 85 104 -4 -3
-7 8 -5 24 2 17 3 30 1 29 -1 0 -17 -18 -34 -39z m17 -27 c0 -12 -150 -158
-150 -147 0 5 -5 2 -11 -6 -9 -13 -10 -13 -6 0 2 8 9 15 15 15 7 0 23 12 37
28 14 15 23 27 19 27 -3 0 -1 7 6 15 7 8 17 12 23 8 6 -4 8 0 4 10 -3 9 -3 16
1 16 22 -4 33 3 29 15 -4 11 -1 13 10 9 11 -4 14 -2 9 5 -4 7 -2 12 3 12 6 0
11 -3 11 -7z m-245 -253 c3 -5 0 -7 -9 -4 -9 3 -17 -2 -21 -15 -4 -12 -11 -18
-17 -15 -8 5 -9 1 -4 -12 6 -15 5 -16 -5 -7 -9 9 -7 18 12 37 26 28 35 31 44
16z m-141 -149 c-3 -3 -13 -6 -22 -6 -10 0 -17 -8 -17 -20 0 -14 -6 -19 -19
-17 -13 3 -17 -1 -13 -11 7 -18 -21 -44 -45 -44 -12 0 -1 17 35 53 28 29 59
52 69 51 9 -1 15 -4 12 -6z"/>
<path d="M1026 194 c-5 -14 -4 -15 9 -4 17 14 19 20 6 20 -5 0 -12 -7 -15 -16z"/>
<path d="M1270 685 c-8 -9 -8 -15 -2 -15 12 0 26 19 19 26 -2 2 -10 -2 -17
-11z"/>
<path d="M5043 583 c0 -17 9 -16 32 1 19 14 18 14 -6 13 -14 -1 -26 -8 -26
-14z"/>
<path d="M1307 468 c-10 -11 -16 -22 -13 -26 6 -5 46 32 46 43 0 10 -15 3 -33
-17z"/>
</g>
</svg>
